GIL02_free2_ik
nRows=3
nColumns=375

# SIMM Motion File Header:
name GIL02_free2_ik
datacolumns 375
datarows 3
otherdata 1
range 0.85833000 0.87500000
endheader
time	pelvis_tx	pelvis_ty	pelvis_tz	pelvis_tilt	pelvis_list	pelvis_rotation	hip_flexion_r	hip_adduction_r	hip_rotation_r	knee_angle_r	ankle_angle_r	hip_flexion_l	hip_adduction_l	hip_rotation_l	knee_angle_l	ankle_angle_l	lumbar_extension	lumbar_bending	lumbar_rotation	subtalar_angle_r	mtp_angle_r	subtalar_angle_l	mtp_angle_l	asis_r_px	asis_r_py	asis_r_pz	asis_l_px	asis_l_py	asis_l_pz	midasis_px	midasis_py	midasis_pz	psis_r_px	psis_r_py	psis_r_pz	psis_l_px	psis_l_py	psis_l_pz	hip_r_px	hip_r_py	hip_r_pz	hip_l_px	hip_l_py	hip_l_pz	midhip_px	midhip_py	midhip_pz	epicondLat_r_px	epicondLat_r_py	epicondLat_r_pz	epicondMed_r_px	epicondMed_r_py	epicondMed_r_pz	thighwand_r_px	thighwand_r_py	thighwand_r_pz	upperleg1_r_px	upperleg1_r_py	upperleg1_r_pz	upperleg2_r_px	upperleg2_r_py	upperleg2_r_pz	malleolusLat_r_px	malleolusLat_r_py	malleolusLat_r_pz	malleolusMedv_r_px	malleolusMedv_r_py	malleolusMedv_r_pz	shankwand_r_px	shankwand_r_py	shankwand_r_pz	lowerleg1_r_px	lowerleg1_r_py	lowerleg1_r_pz	knee_r_px	knee_r_py	knee_r_pz	ankle_r_px	ankle_r_py	ankle_r_pz	toe_r_px	toe_r_py	toe_r_pz	epicondLat_l_px	epicondLat_l_py	epicondLat_l_pz	epicondMed_l_px	epicondMed_l_py	epicondMed_l_pz	thighwand_l_px	thighwand_l_py	thighwand_l_pz	upperleg1_l_px	upperleg1_l_py	upperleg1_l_pz	upperleg2_l_px	upperleg2_l_py	upperleg2_l_pz	malleolusLat_l_px	malleolusLat_l_py	malleolusLat_l_pz	malleolusMedv_l_px	malleolusMedv_l_py	malleolusMedv_l_pz	shankwand_l_px	shankwand_l_py	shankwand_l_pz	lowerleg1_l_px	lowerleg1_l_py	lowerleg1_l_pz	knee_l_px	knee_l_py	knee_l_pz	ankle_l_px	ankle_l_py	ankle_l_pz	toe_l_px	toe_l_py	toe_l_pz	subclavicle_r_px	subclavicle_r_py	subclavicle_r_pz	subclavicle_l_px	subclavicle_l_py	subclavicle_l_pz	neck_px	neck_py	neck_pz	sternalnotch_px	sternalnotch_py	sternalnotch_pz	xyphoidprocess_px	xyphoidprocess_py	xyphoidprocess_pz	midhip_tx	midhip_ty	midhip_tz	hip_r_tx	hip_r_ty	hip_r_tz	hip_l_tx	hip_l_ty	hip_l_tz	knee_r_tx	knee_r_ty	knee_r_tz	knee_l_tx	knee_l_ty	knee_l_tz	ankle_r_tx	ankle_r_ty	ankle_r_tz	ankle_l_tx	ankle_l_ty	ankle_l_tz	midasis_tx	midasis_ty	midasis_tz	asis_r_tx	asis_r_ty	asis_r_tz	asis_l_tx	asis_l_ty	asis_l_tz	psis_r_tx	psis_r_ty	psis_r_tz	psis_l_tx	psis_l_ty	psis_l_tz	epicondLat_r_tx	epicondLat_r_ty	epicondLat_r_tz	epicondLat_l_tx	epicondLat_l_ty	epicondLat_l_tz	epicondMed_r_tx	epicondMed_r_ty	epicondMed_r_tz	epicondMed_l_tx	epicondMed_l_ty	epicondMed_l_tz	malleolusLat_r_tx	malleolusLat_r_ty	malleolusLat_r_tz	malleolusLat_l_tx	malleolusLat_l_ty	malleolusLat_l_tz	malleolusMedv_r_tx	malleolusMedv_r_ty	malleolusMedv_r_tz	malleolusMedv_l_tx	malleolusMedv_l_ty	malleolusMedv_l_tz	neck_tx	neck_ty	neck_tz	subclavicle_r_tx	subclavicle_r_ty	subclavicle_r_tz	subclavicle_l_tx	subclavicle_l_ty	subclavicle_l_tz	sternalnotch_tx	sternalnotch_ty	sternalnotch_tz	xyphoidprocess_tx	xyphoidprocess_ty	xyphoidprocess_tz	thighwand_r_tx	thighwand_r_ty	thighwand_r_tz	thighwand_l_tx	thighwand_l_ty	thighwand_l_tz	upperleg1_r_tx	upperleg1_r_ty	upperleg1_r_tz	upperleg1_l_tx	upperleg1_l_ty	upperleg1_l_tz	upperleg2_r_tx	upperleg2_r_ty	upperleg2_r_tz	upperleg2_l_tx	upperleg2_l_ty	upperleg2_l_tz	shankwand_r_tx	shankwand_r_ty	shankwand_r_tz	shankwand_l_tx	shankwand_l_ty	shankwand_l_tz	lowerleg1_r_tx	lowerleg1_r_ty	lowerleg1_r_tz	lowerleg1_l_tx	lowerleg1_l_ty	lowerleg1_l_tz	toe_r_tx	toe_r_ty	toe_r_tz	toe_l_tx	toe_l_ty	toe_l_tz	ground_force_vx	ground_force_vy	ground_force_vz	ground_force_px	ground_force_py	ground_force_pz	ground_force_vx	ground_force_vy	ground_force_vz	ground_force_px	ground_force_py	ground_force_pz	ground_torque_x	ground_torque_y	ground_torque_z	ground_torque_x	ground_torque_y	ground_torque_z	ground_marker_px	ground_marker_py	ground_marker_pz	ground_marker_px	ground_marker_py	ground_marker_pz	ground_marker_px	ground_marker_py	ground_marker_pz	ground_marker_px	ground_marker_py	ground_marker_pz	ground_marker_px	ground_marker_py	ground_marker_pz	ground_marker_px	ground_marker_py	ground_marker_pz	ground_marker_px	ground_marker_py	ground_marker_pz	ground_marker_px	ground_marker_py	ground_marker_pz	ground_marker_px	ground_marker_py	ground_marker_pz	ground_marker_px	ground_marker_py	ground_marker_pz	ground_marker_px	ground_marker_py	ground_marker_pz	ground_marker_px	ground_marker_py	ground_marker_pz	ground_marker_px	ground_marker_py	ground_marker_pz	ground_marker_px	ground_marker_py	ground_marker_pz	ground_marker_px	ground_marker_py	ground_marker_pz	ground_marker_px	ground_marker_py	ground_marker_pz	ground_marker_px	ground_marker_py	ground_marker_pz	ground_marker_px	ground_marker_py	ground_marker_pz	ground_marker_px	ground_marker_py	ground_marker_pz	ground_marker_px	ground_marker_py	ground_marker_pz	ground_marker_px	ground_marker_py	ground_marker_pz	ground_marker_px	ground_marker_py	ground_marker_pz	ground_marker_px	ground_marker_py	ground_marker_pz	ground_marker_px	ground_marker_py	ground_marker_pz	ground_marker_px	ground_marker_py	ground_marker_pz	ground_marker_px	ground_marker_py	ground_marker_pz	ground_marker_px	ground_marker_py	ground_marker_pz	ground_marker_px	ground_marker_py	ground_marker_pz	ground_marker_px	ground_marker_py	ground_marker_pz	ground_marker_px	ground_marker_py	ground_marker_pz	ground_marker_px	ground_marker_py	ground_marker_pz	ground_marker_px	ground_marker_py	ground_marker_pz	ground_marker_px	ground_marker_py	ground_marker_pz	ground_marker_px	ground_marker_py	ground_marker_pz	ground_marker_px	ground_marker_py	ground_marker_pz	ground_marker_px	ground_marker_py	ground_marker_pz	ground_marker_px	ground_marker_py	ground_marker_pz
      0.85833000	      2.04441236	      0.95403717	     -0.24010168	      0.57312195	      4.50339528	     -3.97901849	     22.64283740	     -5.24434275	     10.66733609	    -56.90564376	     -7.31418576	      2.13790725	      8.80597248	      5.29112651	     -8.53011777	      6.28002249	     -2.89893008	     -2.59951202	      2.12637917	      0.00000000	      0.00000000	      0.00000000	      0.00000000	      2.08260816	      0.94518426	     -0.12020794	      2.10111877	      0.97045262	     -0.35629885	      2.05740555	      0.95409618	     -0.23920069	      1.90344369	      1.00600821	     -0.21525086	      1.91485730	      1.01167781	     -0.30027668	      1.97408061	      0.88629934	     -0.17222461	      1.98473924	      0.89857607	     -0.32673569	      1.97940992	      0.89243771	     -0.24948015	      2.16467899	      0.50734378	     -0.07979317	      2.12774317	      0.49297821	     -0.18463934	      2.17350231	      0.63771701	     -0.02150971	      2.15440258	      0.69582263	     -0.09548738	      2.18074397	      0.61131092	     -0.11002823	      1.90065784	      0.16582266	     -0.06808476	      1.92265119	      0.16162412	     -0.13637081	      2.00001772	      0.26667444	      0.00833559	      1.96721742	      0.24353667	     -0.06190452	      2.14296237	      0.49302045	     -0.15321323	      1.92002385	      0.16620034	     -0.11285281	      1.98399836	      0.05812700	     -0.08323413	      2.02386361	      0.45798674	     -0.35966110	      1.99675877	      0.47091602	     -0.25314842	      2.15957900	      0.57087277	     -0.28209856	      2.09927711	      0.62489886	     -0.33716695	      2.08200761	      0.53973734	     -0.33380639	      1.93239886	      0.07139731	     -0.31669285	      1.95040027	      0.08610922	     -0.25378594	      1.98801672	      0.19870513	     -0.40431722	      1.95771170	      0.16874385	     -0.33502588	      1.99639113	      0.48023308	     -0.29489164	      1.95247377	      0.08553961	     -0.27414887	      2.06994471	      0.04761821	     -0.30093623	      1.99952138	      1.35423754	     -0.17124852	      2.01576885	      1.36161159	     -0.27809951	      1.87411744	      1.42481392	     -0.23079262	      1.98992370	      1.36482260	     -0.22396055	      2.08156153	      1.20628832	     -0.23285046	      1.97952400	      0.89703800	     -0.24139700	      1.97068800	      0.87358700	     -0.17368100	      1.98250400	      0.88208500	     -0.32340400	      2.13353800	      0.49011900	     -0.13587200	      1.99803700	      0.46532200	     -0.28743600	      1.91558100	      0.16668200	     -0.14703400	      1.95237900	      0.07015600	     -0.25597400	      2.06161500	      0.96531000	     -0.23686800	      2.05237400	      0.95866300	     -0.11976000	      2.07085700	      0.97195700	     -0.35397600	      1.87278000	      1.00070300	     -0.21049400	      1.88381700	      1.00524200	     -0.29543900	      2.13698500	      0.49729600	     -0.07791700	      2.00830400	      0.46079400	     -0.34434000	      2.15036900	      0.47955800	     -0.18635200	      1.98038800	      0.47780100	     -0.23028800	      1.89977100	      0.17611000	     -0.11152200	      1.93879800	      0.06881600	     -0.29250800	      1.93427200	      0.17073600	     -0.17265600	      1.95857000	      0.08681500	     -0.23044400	      1.87687900	      1.43104100	     -0.23038500	      2.00004000	      1.35505800	     -0.17224400	      2.01233700	      1.35964000	     -0.27826200	      1.98876400	      1.36501800	     -0.22410200	      2.07168800	      1.20188300	     -0.23327300	      2.14099400	      0.60321800	     -0.00176600	      2.14506900	      0.56904300	     -0.28397300	      2.13704100	      0.66872900	     -0.06901100	      2.08087500	      0.61913900	     -0.33732300	      2.17304700	      0.58888500	     -0.08658300	      2.05959600	      0.53427300	     -0.32475100	      1.97707700	      0.28158100	     -0.02044700	      1.98743500	      0.19515700	     -0.38402400	      1.96106000	      0.25468100	     -0.09546600	      1.95731900	      0.16551800	     -0.31382000	      1.98306600	      0.06967700	     -0.11386500	      2.07329200	      0.03928100	     -0.26458400	      0.00000000	      0.00000000	      0.00000000	      1.49602905	      0.00000000	     -0.14940450	    -25.77927951	    501.51767108	     13.47239991	      2.01719385	      0.00000000	     -0.27052057	      0.00000000	      0.00000000	      0.00000000	      0.00000000	     -0.73786389	      0.00000000	      1.97952366	      0.89703786	     -0.24139729	      1.97068834	      0.87358701	     -0.17368065	      1.98250389	      0.88208526	     -0.32340422	      2.13353848	      0.49011856	     -0.13587232	      1.99803650	      0.46532226	     -0.28743622	      1.91558146	      0.16668190	     -0.14703423	      1.95237911	      0.07015581	     -0.25597399	      2.06161547	      0.96530974	     -0.23686807	      2.05237389	      0.95866275	     -0.11975987	      2.07085729	      0.97195667	     -0.35397628	      1.87278020	      1.00070274	     -0.21049434	      1.88381743	      1.00524247	     -0.29543900	      2.13698459	      0.49729621	     -0.07791668	      2.00830364	      0.46079388	     -0.34434032	      2.15036941	      0.47955847	     -0.18635191	      1.98038769	      0.47780079	     -0.23028778	      1.89977145	      0.17611036	     -0.11152155	      1.93879819	      0.06881617	     -0.29250842	      1.93427229	      0.17073563	     -0.17265593	      1.95857000	      0.08681468	     -0.23044439	      1.87687886	      1.43104136	     -0.23038469	      2.00003982	      1.35505795	     -0.17224385	      2.01233697	      1.35963976	     -0.27826223	      1.98876429	      1.36501813	     -0.22410160	      2.07168841	      1.20188284	     -0.23327290	      2.14099407	      0.60321772	     -0.00176642	      2.14506865	      0.56904280	     -0.28397325	      2.13704062	      0.66872913	     -0.06901053	      2.08087516	      0.61913878	     -0.33732292	      2.17304707	      0.58888495	     -0.08658252	      2.05959630	      0.53427339	     -0.32475051	      1.97707748	      0.28158107	     -0.02044703	      1.98743474	      0.19515684	     -0.38402373	      1.96106040	      0.25468087	     -0.09546649	      1.95731950	      0.16551797	     -0.31381965	      1.98306561	      0.06967715	     -0.11386485	      2.07329226	      0.03928066	     -0.26458418
      0.86667000	      2.05328161	      0.95403412	     -0.24087832	      0.71111257	      4.27827091	     -3.85605265	     23.13169919	     -4.76887154	     11.50022112	    -55.05517388	     -6.18332909	      1.21093112	      8.63630453	      5.53209035	     -8.23697742	      6.72052732	     -3.13757792	     -2.35191477	      2.09881817	      0.00000000	      0.00000000	      0.00000000	      0.00000000	      2.09175066	      0.94575366	     -0.12103105	      2.10970249	      0.97013541	     -0.35725829	      2.06627647	      0.95413006	     -0.24000486	      1.91223175	      1.00574079	     -0.21593690	      1.92345294	      1.01110332	     -0.30100823	      1.98326670	      0.88638489	     -0.17258659	      1.99357061	      0.89807768	     -0.32716701	      1.98841866	      0.89223128	     -0.24987680	      2.17974468	      0.50983656	     -0.08266223	      2.14108598	      0.49477380	     -0.18678697	      2.18815443	      0.64045836	     -0.02487629	      2.16707139	      0.69814536	     -0.09864264	      2.19409312	      0.61389414	     -0.11344450	      1.93042604	      0.15813515	     -0.06563250	      1.95116960	      0.15485048	     -0.13435829	      2.02687931	      0.26324071	      0.00875247	      1.99367192	      0.23866141	     -0.06080338	      2.15653360	      0.49546277	     -0.15564460	      1.94883148	      0.15932319	     -0.11078990	      2.02006594	      0.05557254	     -0.08230645	      2.02699397	      0.45702430	     -0.36016037	      1.99997999	      0.47028211	     -0.25366500	      2.16410622	      0.56812183	     -0.28247227	      2.10455213	      0.62293815	     -0.33757351	      2.08617555	      0.53800740	     -0.33424451	      1.93247688	      0.07130849	     -0.31698313	      1.95057107	      0.08591684	     -0.25407871	      1.98913892	      0.19811384	     -0.40466708	      1.95857036	      0.16843884	     -0.33536830	      1.99971181	      0.47963600	     -0.29541711	      1.95264765	      0.08531776	     -0.27444048	      2.07006264	      0.04731419	     -0.30135635	      2.00874321	      1.35388183	     -0.17201045	      2.02481492	      1.36130037	     -0.27888494	      1.88332887	      1.42465924	     -0.23129344	      1.99906798	      1.36451192	     -0.22469923	      2.09048211	      1.20586312	     -0.23384547	      1.98842000	      0.89669000	     -0.24082600	      1.98011600	      0.87384600	     -0.17359000	      1.99153200	      0.88164600	     -0.32338200	      2.14803100	      0.49171300	     -0.13666100	      2.00156700	      0.46501300	     -0.28745000	      1.94396200	      0.15944800	     -0.14729400	      1.95265000	      0.07021500	     -0.25562200	      2.07064800	      0.96549200	     -0.23745300	      2.06173500	      0.95940200	     -0.12050200	      2.07956100	      0.97158100	     -0.35440300	      1.88162800	      1.00042600	     -0.21048700	      1.89270500	      1.00476100	     -0.29543800	      2.15246700	      0.49925200	     -0.07881800	      2.01181100	      0.46035200	     -0.34434800	      2.16646600	      0.48159800	     -0.18679700	      1.98381900	      0.47719400	     -0.23101500	      1.92802000	      0.16809800	     -0.11164300	      1.93916300	      0.06893800	     -0.29219400	      1.96238900	      0.16459100	     -0.17315300	      1.95870600	      0.08660300	     -0.23017300	      1.88620600	      1.43105200	     -0.23093400	      2.00903000	      1.35507900	     -0.17323000	      2.02136400	      1.35980300	     -0.27892800	      1.99795000	      1.36491100	     -0.22472800	      2.08059600	      1.20194300	     -0.23429700	      2.15670000	      0.60621600	     -0.00285600	      2.14972600	      0.56681400	     -0.28390800	      2.15047500	      0.67122700	     -0.07055300	      2.08603900	      0.61774500	     -0.33755600	      2.18802700	      0.59211500	     -0.08808500	      2.06387100	      0.53294200	     -0.32513300	      2.00148900	      0.27659400	     -0.02073700	      1.98908600	      0.19480200	     -0.38378500	      1.98694800	      0.24893400	     -0.09609000	      1.95905400	      0.16549200	     -0.31382300	      2.01749300	      0.06699100	     -0.11540700	      2.07340300	      0.03925900	     -0.26456900	      0.00000000	      0.00000000	      0.00000000	      1.49700757	      0.00000000	     -0.14982910	    -23.40322477	    499.59123497	     14.01092538	      2.02014514	      0.00000000	     -0.27087076	      0.00000000	      0.00000000	      0.00000000	      0.00000000	     -0.79774207	      0.00000000	      1.98842001	      0.89669013	     -0.24082616	      1.98011577	      0.87384623	     -0.17358987	      1.99153221	      0.88164550	     -0.32338244	      2.14803076	      0.49171326	     -0.13666072	      2.00156736	      0.46501288	     -0.28745031	      1.94396162	      0.15944816	     -0.14729445	      1.95264959	      0.07021512	     -0.25562242	      2.07064819	      0.96549153	     -0.23745260	      2.06173491	      0.95940226	     -0.12050212	      2.07956147	      0.97158080	     -0.35440308	      1.88162816	      1.00042617	     -0.21048713	      1.89270484	      1.00476098	     -0.29543817	      2.15246677	      0.49925235	     -0.07881840	      2.01181054	      0.46035248	     -0.34434807	      2.16646600	      0.48159796	     -0.18679719	      1.98381948	      0.47719362	     -0.23101489	      1.92802036	      0.16809794	     -0.11164258	      1.93916285	      0.06893786	     -0.29219398	      1.96238852	      0.16459106	     -0.17315327	      1.95870578	      0.08660331	     -0.23017287	      1.88620579	      1.43105245	     -0.23093444	      2.00902963	      1.35507858	     -0.17323025	      2.02136445	      1.35980296	     -0.27892810	      1.99795032	      1.36491120	     -0.22472849	      2.08059621	      1.20194268	     -0.23429714	      2.15670013	      0.60621625	     -0.00285648	      2.14972615	      0.56681430	     -0.28390759	      2.15047455	      0.67122728	     -0.07055282	      2.08603930	      0.61774540	     -0.33755645	      2.18802667	      0.59211463	     -0.08808486	      2.06387091	      0.53294218	     -0.32513332	      2.00148940	      0.27659428	     -0.02073677	      1.98908556	      0.19480224	     -0.38378510	      1.98694837	      0.24893393	     -0.09609043	      1.95905364	      0.16549243	     -0.31382257	      2.01749253	      0.06699134	     -0.11540735	      2.07340312	      0.03925915	     -0.26456898
      0.87500000	      2.06205366	      0.95384353	     -0.24152865	      0.85472434	      4.06136860	     -3.71648238	     23.53340370	     -4.32381108	     12.29254836	    -52.96780627	     -5.20460065	      0.27216942	      8.47164198	      5.87580894	     -7.91717923	      7.15940835	     -3.39237125	     -2.10880417	      2.00611736	      0.00000000	      0.00000000	      0.00000000	      0.00000000	      2.10082905	      0.94612424	     -0.12174266	      2.11815479	      0.96965104	     -0.35810331	      2.07505024	      0.95397762	     -0.24068653	      1.92092488	      1.00526708	     -0.21644869	      1.93192975	      1.01033450	     -0.30156636	      1.99238307	      0.88626845	     -0.17281270	      2.00228875	      0.89739796	     -0.32746071	      1.99733591	      0.89183321	     -0.25013670	      2.19411485	      0.51191998	     -0.08537049	      2.15377619	      0.49618397	     -0.18875576	      2.20225560	      0.64278122	     -0.02808999	      2.17930794	      0.70004949	     -0.10162576	      2.20689281	      0.61602548	     -0.11667824	      1.96090560	      0.15015445	     -0.06360522	      1.98035468	      0.14783727	     -0.13274770	      2.05394280	      0.25957068	      0.00889101	      2.02047076	      0.23350179	     -0.05999240	      2.16936748	      0.49753189	     -0.15788825	      1.97830066	      0.15219416	     -0.10913119	      2.05648985	      0.05317515	     -0.08208423	      2.03006703	      0.45595479	     -0.36047672	      2.00297829	      0.46954069	     -0.25404171	      2.16842636	      0.56524952	     -0.28244321	      2.10971712	      0.62084444	     -0.33767086	      2.09023301	      0.53615848	     -0.33440420	      1.93262697	      0.07110362	     -0.31720892	      1.95070874	      0.08562192	     -0.25428009	      1.99040480	      0.19741790	     -0.40487352	      1.95948169	      0.16802271	     -0.33561281	      2.00287295	      0.47893239	     -0.29580379	      1.95282000	      0.08499253	     -0.27463737	      2.07023761	      0.04695722	     -0.30149695	      2.01787531	      1.35331420	     -0.17256240	      2.03386384	      1.36077503	     -0.27944643	      1.89251781	      1.42432197	     -0.23168993	      2.00816986	      1.36399225	     -0.22523593	      2.09933119	      1.20520854	     -0.23456250	      1.99713500	      0.89599700	     -0.24029500	      1.98955100	      0.87391500	     -0.17343000	      2.00055200	      0.88106200	     -0.32328600	      2.16196800	      0.49299400	     -0.13745800	      2.00504200	      0.46466200	     -0.28743700	      1.97295000	      0.15193800	     -0.14757800	      1.95297300	      0.07023700	     -0.25525900	      2.07966600	      0.96551200	     -0.23794900	      2.07108900	      0.95993900	     -0.12110600	      2.08824300	      0.97108500	     -0.35479100	      1.89046200	      0.99997400	     -0.21043400	      1.90157800	      1.00410200	     -0.29540000	      2.16735500	      0.50088300	     -0.07974400	      2.01536200	      0.45987700	     -0.34431100	      2.18031500	      0.48387500	     -0.18804200	      1.98654000	      0.47833000	     -0.23051400	      1.95687500	      0.15978500	     -0.11180000	      1.93958600	      0.06901800	     -0.29186900	      1.99071800	      0.15795600	     -0.17359400	      1.95872500	      0.08647300	     -0.22990000	      1.89545200	      1.43088900	     -0.23131200	      2.01823900	      1.35490400	     -0.17441100	      2.03016500	      1.35938700	     -0.27922800	      2.00715500	      1.36464500	     -0.22534900	      2.08930600	      1.20151900	     -0.23496400	      2.17183700	      0.60887400	     -0.00404800	      2.15439200	      0.56463300	     -0.28353500	      2.16353400	      0.67353100	     -0.07178500	      2.09186300	      0.61636900	     -0.33768800	      2.20205600	      0.59480400	     -0.08994200	      2.06789300	      0.53166500	     -0.32470600	      2.02606200	      0.27137600	     -0.02105800	      1.99076600	      0.19442500	     -0.38351800	      2.01347200	      0.24349100	     -0.09623000	      1.96061600	      0.16543200	     -0.31361100	      2.05220100	      0.06436100	     -0.11702300	      2.07347700	      0.03925700	     -0.26457000	      0.00000000	      0.00000000	      0.00000000	      1.49809644	      0.00000000	     -0.15016760	    -21.23144687	    499.59071182	     14.35567346	      2.02321082	      0.00000000	     -0.27115115	      0.00000000	      0.00000000	      0.00000000	      0.00000000	     -0.87373029	      0.00000000	      1.99713540	      0.89599746	     -0.24029535	      1.98955107	      0.87391454	     -0.17343010	      2.00055170	      0.88106179	     -0.32328632	      2.16196752	      0.49299419	     -0.13745843	      2.00504231	      0.46466246	     -0.28743702	      1.97295010	      0.15193792	     -0.14757772	      1.95297325	      0.07023733	     -0.25525919	      2.07966614	      0.96551192	     -0.23794863	      2.07108879	      0.95993924	     -0.12110598	      2.08824325	      0.97108465	     -0.35479128	      1.89046156	      0.99997389	     -0.21043402	      1.90157819	      1.00410235	     -0.29539996	      2.16735482	      0.50088286	     -0.07974363	      2.01536226	      0.45987731	     -0.34431055	      2.18031549	      0.48387504	     -0.18804222	      1.98653984	      0.47832957	     -0.23051371	      1.95687521	      0.15978526	     -0.11180038	      1.93958580	      0.06901795	     -0.29186910	      1.99071789	      0.15795642	     -0.17359398	      1.95872509	      0.08647349	     -0.22990032	      1.89545214	      1.43088889	     -0.23131181	      2.01823926	      1.35490358	     -0.17441061	      2.03016472	      1.35938656	     -0.27922818	      2.00715494	      1.36464477	     -0.22534940	      2.08930635	      1.20151937	     -0.23496427	      2.17183733	      0.60887420	     -0.00404757	      2.15439153	      0.56463313	     -0.28353474	      2.16353369	      0.67353052	     -0.07178455	      2.09186316	      0.61636949	     -0.33768830	      2.20205641	      0.59480387	     -0.08994164	      2.06789255	      0.53166497	     -0.32470575	      2.02606153	      0.27137601	     -0.02105818	      1.99076605	      0.19442485	     -0.38351780	      2.01347232	      0.24349062	     -0.09622956	      1.96061599	      0.16543172	     -0.31361142	      2.05220127	      0.06436143	     -0.11702302	      2.07347679	      0.03925731	     -0.26457018
